<?xml version="1.0" encoding="utf-8"?>
<!-- Generator: Adobe Illustrator 24.0.2, SVG Export Plug-In . SVG Version: 6.00 Build 0)  -->
<svg version="1.1" id="Слой_1" xmlns="http://www.w3.org/2000/svg" xmlns:xlink="http://www.w3.org/1999/xlink" x="0px" y="0px"
	 viewBox="0 0 142.1 110.91" style="enable-background:new 0 0 142.1 110.91;" xml:space="preserve">
<style type="text/css">
	.st0{fill:#FFFFFF;}
</style>
<g>
	<g>
		<g>
			<path class="st0" d="M86.38,70.37c-1.39-0.46-2.4-0.72-4.06-0.72c-1.22,0-2.67,0.43-2.67,1.87c0,2.69,7.88,0.99,7.88,7.09
				c0,3.94-3.62,5.52-7.3,5.52c-1.73,0-3.48-0.29-5.14-0.72l0.27-3.61c1.42,0.69,2.91,1.12,4.46,1.12c1.15,0,2.98-0.43,2.98-2.07
				c0-3.32-7.88-1.05-7.88-7.16c0-3.64,3.28-5.25,6.83-5.25c2.13,0,3.52,0.33,4.94,0.63L86.38,70.37z"/>
			<rect x="107.48" y="66.85" class="st0" width="4.53" height="16.91"/>
			<path class="st0" d="M140.35,70.37c-1.38-0.46-2.4-0.72-4.06-0.72c-1.22,0-2.67,0.43-2.67,1.87c0,2.69,7.88,0.99,7.88,7.09
				c0,3.94-3.62,5.52-7.3,5.52c-1.73,0-3.48-0.29-5.14-0.72l0.27-3.61c1.42,0.69,2.91,1.12,4.46,1.12c1.15,0,2.98-0.43,2.98-2.07
				c0-3.32-7.88-1.05-7.88-7.16c0-3.64,3.28-5.25,6.83-5.25c2.13,0,3.51,0.33,4.93,0.63L140.35,70.37z"/>
			<polygon class="st0" points="98.63,74.43 105.05,66.85 99.71,66.85 94.3,73.61 94.23,73.61 94.23,57.75 89.7,59.14 89.7,83.76 
				94.23,83.76 94.23,75.55 94.3,75.55 100.11,83.76 105.86,83.76 			"/>
			<polygon class="st0" points="114.93,59.14 114.93,83.76 119.46,83.76 119.46,57.75 			"/>
			<polygon class="st0" points="122.08,59.14 122.07,59.14 122.07,83.76 126.61,83.76 126.61,57.75 			"/>
			<path class="st0" d="M112.36,60.54c0-1.39-1.13-2.52-2.52-2.52c-1.39,0-2.52,1.13-2.52,2.52c0,1.39,1.13,2.52,2.52,2.52
				C111.23,63.06,112.36,61.93,112.36,60.54"/>
		</g>
		<g>
			<path class="st0" d="M33.68,66.81c-5.9,0-7.99,4.69-7.99,8.71c0,4.02,2.09,8.71,7.99,8.71c5.9,0,7.99-4.69,7.99-8.71
				C41.67,71.49,39.58,66.81,33.68,66.81 M33.68,82.56c-3.45,0-5.77-2.83-5.77-7.05c0-4.22,2.32-7.05,5.77-7.05
				c3.45,0,5.77,2.83,5.77,7.05C39.45,79.73,37.13,82.56,33.68,82.56"/>
			<path class="st0" d="M45.5,69.86v-2.73h-1.88l0,16.62h2.01v-8.21l0-0.11c0-3.06,0.87-6.72,5-6.72l0.63,0.03l0.01-0.07l0.1-1.94
				l-0.23,0C48.35,66.74,46.46,67.79,45.5,69.86"/>
			<path class="st0" d="M72.2,58.68l-1.93,0.59v10.28c-0.42-0.7-1.99-2.85-5.5-2.81c-5.82,0.07-7.04,4.77-7.04,8.71
				c0,5.37,2.7,8.71,7.04,8.71c2.59,0,4.34-0.95,5.5-2.97v2.58h2.01v-25.1L72.2,58.68z M65.11,82.5c-4.66,0-5.16-4.93-5.16-7.05
				c0-2.12,0.5-7.05,5.16-7.05c3.57,0,5.17,3.54,5.17,7.05C70.27,78.96,68.67,82.5,65.11,82.5"/>
			<polygon class="st0" points="55.4,58.68 53.47,59.27 53.47,83.76 55.49,83.76 55.49,58.66 			"/>
			<path class="st0" d="M2.16,67.13H0l0.03,0.08c0.1,0.31,5.42,16.35,5.46,16.5l0.01,0.04h2.48c0,0,4.67-14.39,4.7-14.48h0.15
				c0.03,0.09,4.7,14.48,4.7,14.48h2.49l5.64-16.62h-2.01c0,0-4.74,14.39-4.77,14.48h-0.15c-0.03-0.09-4.56-14.48-4.56-14.48h-2.48
				c0,0-4.77,14.39-4.8,14.48H6.74c-0.03-0.09-4.53-14.48-4.53-14.48H2.16z"/>
		</g>
	</g>
	<g>
		<path class="st0" d="M103.27,29.15c0,0,8.09-1.43,10.74-7.87c0,0,47.12,9.65,19.3,34.78c0,0,10.32-9.72,4.56-17.49
			c0,0,3.22,9.65-9.38,16.15C128.49,54.72,155.82,35.31,103.27,29.15"/>
		<path class="st0" d="M129.09,25.63c3.3,1.63,5.6,3.23,6.95,4.28c0.59-16.87-11.5-26.3-11.5-26.3c-0.35,1.08-1.41,2.29-2.92,2.84
			c-1.51,0.55-2.41,2.36-2.41,2.36C125.12,13.73,127.96,19.73,129.09,25.63"/>
		<path class="st0" d="M112.76,22.47c0.71-1.07,0.91-1.8,0.91-1.8c3.11,0.55,5.91,1.28,8.4,2.1C116.91,8.06,107.31,0,107.31,0
			c-0.27,0.77-3.08,2.18-4.99,3.02c-1.91,0.84-1.41,4.39-1.41,4.39C106.16,11.74,109.98,17.05,112.76,22.47"/>
		<path class="st0" d="M132.52,38.78c-0.65,7.26-4.96,14.97-4.96,14.97c3.04-4.63,5.13-8.98,6.47-13.03
			C133.65,40.04,133.14,39.39,132.52,38.78"/>
		<path class="st0" d="M131.95,38.26c-0.71-0.61-1.53-1.18-2.44-1.72c-0.76,7.81-3.36,13.69-3.36,13.69
			c1.51-1.71,2.66-4.47,2.66-4.47c0.05,1.96-1.56,5.83-1.56,5.83C130.02,47.15,131.34,41.74,131.95,38.26"/>
		<path class="st0" d="M115.6,53.48c-1.68-0.9-4.1-1.86-9.1-5.73c3.78,2.84,10.09,4.66,10.09,4.66
			c-13.93-7.07-16.97-13.48-16.97-13.48c-1.34-0.04-2.15,0.81-2.68,1.1c-0.53,0.29-1.98,0.27-1.98,0.27
			C100.27,48.86,115.6,53.48,115.6,53.48"/>
		<path class="st0" d="M109.37,30.44c-4.63-0.77-8.03-1.06-8.03-1.06c1.85-0.46,3.42-1.03,4.77-1.64c-6.51-4.74-13-5.91-13-5.91
			s-1.21,0.4-1.37,2.41c-0.17,2.01-1.71,2.28-1.71,2.28C114.35,33.01,118,53.05,118,53.05c-1.66-9.05-5.18-14.83-5.18-14.83
			c3.72,3.82,6.28,13.52,6.28,13.52C118.28,41.71,114.12,34.95,109.37,30.44"/>
		<path class="st0" d="M116.65,31.88c3.5,10.81,3.57,19.96,3.57,19.96c2.59-5.03,1.91-16.59,1.91-16.59
			c2.41,4.73,2.11,17.59,2.11,17.59c1.24-6.76,1.29-12.95,0.58-18.51C122.24,33.35,119.42,32.54,116.65,31.88"/>
	</g>
	<g>
		<path class="st0" d="M1.47,87.58h5.91c4.38-0.07,6.62,1.92,6.73,5.95c-0.02,1.49-0.51,2.68-1.48,3.58
			c-0.96,0.92-2.17,1.49-3.61,1.71v0.07c0.88,0.11,1.51,0.39,1.91,0.85c0.22,0.22,0.4,0.49,0.56,0.82c0.17,0.33,0.34,0.69,0.49,1.08
			l3.91,8.87h-2.5l-3.32-7.75c-0.61-1.42-1.25-2.31-1.91-2.66c-0.33-0.2-0.7-0.32-1.12-0.36c-0.42-0.02-0.9-0.03-1.45-0.03H3.74
			v10.81H1.47V87.58z M3.74,97.73h2.4c1.42,0.02,2.72-0.28,3.88-0.92c1.18-0.63,1.8-1.73,1.84-3.28c0-0.94-0.15-1.69-0.46-2.23
			c-0.31-0.55-0.72-0.94-1.25-1.18c-0.53-0.26-1.14-0.43-1.84-0.49c-0.7-0.04-1.45-0.07-2.23-0.07H3.74V97.73z"/>
		<path class="st0" d="M29.85,106.57c-0.02,1.27,0.02,2.58,0.13,3.94h-2v-2.99h-0.07c-0.15,0.37-0.36,0.74-0.62,1.12
			c-0.26,0.39-0.6,0.77-1.02,1.12c-0.42,0.33-0.93,0.59-1.54,0.79c-0.61,0.24-1.36,0.36-2.23,0.36c-2.04-0.02-3.5-0.64-4.4-1.84
			c-0.9-1.18-1.34-2.72-1.31-4.6V93.76h2.07v10.18c0,1.6,0.32,2.85,0.95,3.74c0.61,0.96,1.62,1.45,3.02,1.45
			c0.94,0,1.74-0.2,2.4-0.59c0.66-0.37,1.16-0.85,1.51-1.45c0.39-0.61,0.67-1.27,0.82-1.97c0.15-0.7,0.23-1.4,0.23-2.1v-9.26h2.07
			V106.57z"/>
		<path class="st0" d="M36.48,109.13c1.03,0,1.91-0.27,2.63-0.82c0.7-0.5,1.06-1.23,1.08-2.17c-0.02-0.99-0.43-1.76-1.22-2.33
			c-0.79-0.55-1.72-1.04-2.79-1.48c-0.5-0.24-0.99-0.49-1.45-0.76c-0.46-0.26-0.9-0.56-1.31-0.89c-0.37-0.35-0.68-0.76-0.92-1.22
			c-0.24-0.44-0.36-0.95-0.36-1.54c0.02-1.66,0.59-2.85,1.71-3.55c1.07-0.68,2.32-1.02,3.74-1.02c0.48,0,1.11,0.05,1.87,0.14
			c0.77,0.14,1.52,0.35,2.27,0.65l-0.2,1.77c-1.2-0.5-2.44-0.77-3.71-0.79c-1.07,0-1.93,0.2-2.56,0.59
			c-0.33,0.2-0.58,0.47-0.76,0.82c-0.2,0.35-0.3,0.81-0.3,1.37c0,0.35,0.12,0.67,0.36,0.98c0.24,0.28,0.56,0.54,0.95,0.78
			c0.39,0.22,0.84,0.45,1.35,0.69c0.5,0.22,1,0.46,1.48,0.72c1.09,0.46,2.05,1.08,2.86,1.85c0.81,0.77,1.23,1.83,1.25,3.2
			c0,0.88-0.18,1.61-0.53,2.21c-0.37,0.62-0.84,1.11-1.41,1.48c-1.23,0.72-2.53,1.09-3.91,1.09c-1.62,0-3.19-0.26-4.7-0.79l0.2-2.04
			C33.38,108.76,34.84,109.11,36.48,109.13z"/>
		<path class="st0" d="M47.62,109.13c1.03,0,1.91-0.27,2.63-0.82c0.7-0.5,1.06-1.23,1.08-2.17c-0.02-0.99-0.43-1.76-1.22-2.33
			c-0.79-0.55-1.72-1.04-2.79-1.48c-0.5-0.24-0.99-0.49-1.45-0.76c-0.46-0.26-0.9-0.56-1.31-0.89c-0.37-0.35-0.68-0.76-0.92-1.22
			c-0.24-0.44-0.36-0.95-0.36-1.54c0.02-1.66,0.59-2.85,1.71-3.55c1.07-0.68,2.32-1.02,3.74-1.02c0.48,0,1.11,0.05,1.87,0.14
			c0.77,0.14,1.52,0.35,2.27,0.65l-0.2,1.77c-1.2-0.5-2.44-0.77-3.71-0.79c-1.07,0-1.93,0.2-2.56,0.59
			c-0.33,0.2-0.58,0.47-0.76,0.82c-0.2,0.35-0.3,0.81-0.3,1.37c0,0.35,0.12,0.67,0.36,0.98c0.24,0.28,0.56,0.54,0.95,0.78
			c0.39,0.22,0.84,0.45,1.35,0.69c0.5,0.22,1,0.46,1.48,0.72c1.09,0.46,2.05,1.08,2.86,1.85c0.81,0.77,1.23,1.83,1.25,3.2
			c0,0.88-0.18,1.61-0.53,2.21c-0.37,0.62-0.84,1.11-1.41,1.48c-1.23,0.72-2.53,1.09-3.91,1.09c-1.62,0-3.19-0.26-4.7-0.79l0.2-2.04
			C44.52,108.76,45.98,109.11,47.62,109.13z"/>
		<path class="st0" d="M57.74,89.29h-2.07v-2.76h2.07V89.29z M55.67,93.76h2.07v16.75h-2.07V93.76z"/>
		<path class="st0" d="M70.94,107.82h-0.07c-0.48,0.99-1.22,1.74-2.2,2.27c-0.99,0.53-2.03,0.8-3.12,0.82
			c-1.16-0.02-2.1-0.21-2.82-0.56c-0.74-0.33-1.31-0.74-1.71-1.25c-0.7-1.09-1.03-2.07-0.99-2.92c0-1.4,0.34-2.51,1.02-3.32
			c0.66-0.81,1.5-1.39,2.53-1.74c1.03-0.37,2.15-0.61,3.35-0.72c1.18-0.07,2.32-0.1,3.42-0.1h0.39v-0.85c0.07-2.87-1.2-4.3-3.81-4.3
			c-1.73-0.02-3.37,0.44-4.93,1.38v-1.97c1.55-0.74,3.2-1.14,4.93-1.18c3.96-0.04,5.92,2.04,5.88,6.24V107
			c-0.02,1.27,0.03,2.44,0.16,3.51h-2.04V107.82z M70.74,102.07h-0.59c-0.9,0-1.8,0.02-2.69,0.07c-0.94,0.09-1.8,0.27-2.56,0.56
			c-0.77,0.26-1.38,0.67-1.84,1.22c-0.5,0.55-0.76,1.28-0.76,2.2c0,1.07,0.35,1.84,1.05,2.3c0.66,0.48,1.47,0.72,2.43,0.72
			c1.2,0,2.16-0.24,2.86-0.72c0.68-0.46,1.17-1.01,1.48-1.64c0.33-0.68,0.51-1.35,0.56-2c0.04-0.68,0.07-1.24,0.07-1.68V102.07z"/>
	</g>
</g>
</svg>
